<svg xmlns="http://www.w3.org/2000/svg" xmlns:xlink="http://www.w3.org/1999/xlink" contentStyleType="text/css" data-diagram-type="CLASS" height="842px" preserveAspectRatio="none" style="width:697px;height:842px;background:#FFFFFF;" version="1.1" viewBox="0 0 697 842" width="697px" zoomAndPan="magnify"><defs/><g><!--class Restaurant--><g id="elem_Restaurant"><rect codeLine="1" fill="#F1F1F1" height="178.375" id="Restaurant" rx="2.5" ry="2.5" style="stroke:#181818;stroke-width:0.5;" width="351.2402" x="126.46" y="7"/><ellipse cx="259.1934" cy="23" fill="#ADD1B2" rx="11" ry="11" style="stroke:#181818;stroke-width:1;"/><path d="M262.1621,28.6406 Q261.584,28.9375 260.9434,29.0781 Q260.3028,29.2344 259.5996,29.2344 Q257.0996,29.2344 255.7715,27.5938 Q254.459,25.9375 254.459,22.8125 Q254.459,19.6875 255.7715,18.0313 Q257.0996,16.375 259.5996,16.375 Q260.3028,16.375 260.9434,16.5313 Q261.5996,16.6875 262.1621,16.9844 L262.1621,19.7031 Q261.5371,19.125 260.9434,18.8594 Q260.3496,18.5781 259.7246,18.5781 Q258.3809,18.5781 257.6934,19.6563 Q257.0059,20.7188 257.0059,22.8125 Q257.0059,24.9063 257.6934,25.9844 Q258.3809,27.0469 259.7246,27.0469 Q260.3496,27.0469 260.9434,26.7813 Q261.5371,26.5 262.1621,25.9219 L262.1621,28.6406 Z " fill="#000000"/><text fill="#000000" font-family="sans-serif" font-size="14" lengthAdjust="spacing" textLength="77.2734" x="279.6934" y="27.8467">Restaurant</text><line style="stroke:#181818;stroke-width:0.5;" x1="127.46" x2="476.7002" y1="39" y2="39"/><rect fill="none" height="6" style="stroke:#C82930;stroke-width:1;" width="6" x="134.46" y="49.6484"/><text fill="#000000" font-family="sans-serif" font-size="14" lengthAdjust="spacing" textLength="158.9287" x="146.46" y="55.9951">tables : dict[int, Table]</text><rect fill="none" height="6" style="stroke:#C82930;stroke-width:1;" width="6" x="134.46" y="65.9453"/><text fill="#000000" font-family="sans-serif" font-size="14" lengthAdjust="spacing" textLength="92.0527" x="146.46" y="72.292">menu : Menu</text><line style="stroke:#181818;stroke-width:0.5;" x1="127.46" x2="476.7002" y1="79.5938" y2="79.5938"/><ellipse cx="137.46" cy="93.2422" fill="#84BE84" rx="3" ry="3" style="stroke:#038048;stroke-width:1;"/><text fill="#000000" font-family="sans-serif" font-size="14" lengthAdjust="spacing" textLength="180.3457" x="146.46" y="96.5889">Restaurant(menuFile: str)</text><ellipse cx="137.46" cy="109.5391" fill="#84BE84" rx="3" ry="3" style="stroke:#038048;stroke-width:1;"/><text fill="#000000" font-family="sans-serif" font-size="14" lengthAdjust="spacing" textLength="247.0508" x="146.46" y="112.8857">addTable(tableNumber: int) : Table</text><ellipse cx="137.46" cy="125.8359" fill="#84BE84" rx="3" ry="3" style="stroke:#038048;stroke-width:1;"/><text fill="#000000" font-family="sans-serif" font-size="14" lengthAdjust="spacing" textLength="243.6875" x="146.46" y="129.1826">getTable(tableNumber: int) : Table</text><ellipse cx="137.46" cy="142.1328" fill="#84BE84" rx="3" ry="3" style="stroke:#038048;stroke-width:1;"/><text fill="#000000" font-family="sans-serif" font-size="14" lengthAdjust="spacing" textLength="149.6934" x="146.46" y="145.4795">displayTables() : void</text><ellipse cx="137.46" cy="158.4297" fill="#84BE84" rx="3" ry="3" style="stroke:#038048;stroke-width:1;"/><text fill="#000000" font-family="sans-serif" font-size="14" lengthAdjust="spacing" textLength="142.3174" x="146.46" y="161.7764">displayMenu() : void</text><ellipse cx="137.46" cy="174.7266" fill="#84BE84" rx="3" ry="3" style="stroke:#038048;stroke-width:1;"/><text fill="#000000" font-family="sans-serif" font-size="14" lengthAdjust="spacing" textLength="325.2402" x="146.46" y="178.0732">saveBill(tableNumber: int, filename: str) : bool</text></g><!--class Menu--><g id="elem_Menu"><rect codeLine="12" fill="#F1F1F1" height="129.4844" id="Menu" rx="2.5" ry="2.5" style="stroke:#181818;stroke-width:0.5;" width="290.1611" x="7" y="261.67"/><ellipse cx="128.6113" cy="277.67" fill="#ADD1B2" rx="11" ry="11" style="stroke:#181818;stroke-width:1;"/><path d="M131.5801,283.3106 Q131.002,283.6075 130.3613,283.7481 Q129.7207,283.9044 129.0176,283.9044 Q126.5176,283.9044 125.1895,282.2637 Q123.877,280.6075 123.877,277.4825 Q123.877,274.3575 125.1895,272.7012 Q126.5176,271.045 129.0176,271.045 Q129.7207,271.045 130.3613,271.2012 Q131.0176,271.3575 131.5801,271.6544 L131.5801,274.3731 Q130.9551,273.795 130.3613,273.5294 Q129.7676,273.2481 129.1426,273.2481 Q127.7988,273.2481 127.1113,274.3262 Q126.4238,275.3887 126.4238,277.4825 Q126.4238,279.5762 127.1113,280.6544 Q127.7988,281.7169 129.1426,281.7169 Q129.7676,281.7169 130.3613,281.4512 Q130.9551,281.17 131.5801,280.5919 L131.5801,283.3106 Z " fill="#000000"/><text fill="#000000" font-family="sans-serif" font-size="14" lengthAdjust="spacing" textLength="38.4385" x="149.1113" y="282.5167">Menu</text><line style="stroke:#181818;stroke-width:0.5;" x1="8" x2="296.1611" y1="293.67" y2="293.67"/><rect fill="none" height="6" style="stroke:#C82930;stroke-width:1;" width="6" x="15" y="304.3184"/><text fill="#000000" font-family="sans-serif" font-size="14" lengthAdjust="spacing" textLength="148.3193" x="27" y="310.6651">items : dict[str, float]</text><line style="stroke:#181818;stroke-width:0.5;" x1="8" x2="296.1611" y1="317.9669" y2="317.9669"/><ellipse cx="18" cy="331.6153" fill="#84BE84" rx="3" ry="3" style="stroke:#038048;stroke-width:1;"/><text fill="#000000" font-family="sans-serif" font-size="14" lengthAdjust="spacing" textLength="138.0928" x="27" y="334.962">Menu(filename: str)</text><ellipse cx="18" cy="347.9122" fill="#84BE84" rx="3" ry="3" style="stroke:#038048;stroke-width:1;"/><text fill="#000000" font-family="sans-serif" font-size="14" lengthAdjust="spacing" textLength="264.1611" x="27" y="351.2589">addItem(name: str, price: float) : void</text><ellipse cx="18" cy="364.2091" fill="#84BE84" rx="3" ry="3" style="stroke:#038048;stroke-width:1;"/><text fill="#000000" font-family="sans-serif" font-size="14" lengthAdjust="spacing" textLength="212.6592" x="27" y="367.5557">getItemPrice(name: str) : float</text><ellipse cx="18" cy="380.5059" fill="#84BE84" rx="3" ry="3" style="stroke:#038048;stroke-width:1;"/><text fill="#000000" font-family="sans-serif" font-size="14" lengthAdjust="spacing" textLength="142.3174" x="27" y="383.8526">displayMenu() : void</text></g><!--class Table--><g id="elem_Table"><rect codeLine="20" fill="#F1F1F1" height="162.0781" id="Table" rx="2.5" ry="2.5" style="stroke:#181818;stroke-width:0.5;" width="239.917" x="332.12" y="245.37"/><ellipse cx="428.5682" cy="261.37" fill="#ADD1B2" rx="11" ry="11" style="stroke:#181818;stroke-width:1;"/><path d="M431.537,267.0106 Q430.9589,267.3075 430.3182,267.4481 Q429.6776,267.6044 428.9745,267.6044 Q426.4745,267.6044 425.1464,265.9637 Q423.8339,264.3075 423.8339,261.1825 Q423.8339,258.0575 425.1464,256.4012 Q426.4745,254.745 428.9745,254.745 Q429.6776,254.745 430.3182,254.9012 Q430.9745,255.0575 431.537,255.3544 L431.537,258.0731 Q430.912,257.495 430.3182,257.2294 Q429.7245,256.9481 429.0995,256.9481 Q427.7557,256.9481 427.0682,258.0262 Q426.3807,259.0887 426.3807,261.1825 Q426.3807,263.2762 427.0682,264.3544 Q427.7557,265.4169 429.0995,265.4169 Q429.7245,265.4169 430.3182,265.1512 Q430.912,264.87 431.537,264.2919 L431.537,267.0106 Z " fill="#000000"/><text fill="#000000" font-family="sans-serif" font-size="14" lengthAdjust="spacing" textLength="38.5205" x="449.0682" y="266.2167">Table</text><line style="stroke:#181818;stroke-width:0.5;" x1="333.12" x2="571.037" y1="277.37" y2="277.37"/><rect fill="none" height="6" style="stroke:#C82930;stroke-width:1;" width="6" x="340.12" y="288.0184"/><text fill="#000000" font-family="sans-serif" font-size="14" lengthAdjust="spacing" textLength="119.1162" x="352.12" y="294.3651">tableNumber: int</text><rect fill="none" height="6" style="stroke:#C82930;stroke-width:1;" width="6" x="340.12" y="304.3153"/><text fill="#000000" font-family="sans-serif" font-size="14" lengthAdjust="spacing" textLength="130.0059" x="352.12" y="310.662">orders : list[Order]</text><line style="stroke:#181818;stroke-width:0.5;" x1="333.12" x2="571.037" y1="317.9637" y2="317.9637"/><ellipse cx="343.12" cy="331.6122" fill="#84BE84" rx="3" ry="3" style="stroke:#038048;stroke-width:1;"/><text fill="#000000" font-family="sans-serif" font-size="14" lengthAdjust="spacing" textLength="168.5605" x="352.12" y="334.9589">Table(tableNumber: int)</text><ellipse cx="343.12" cy="347.9091" fill="#84BE84" rx="3" ry="3" style="stroke:#038048;stroke-width:1;"/><text fill="#000000" font-family="sans-serif" font-size="14" lengthAdjust="spacing" textLength="207.3271" x="352.12" y="351.2557">addOrder(order: Order) : void</text><ellipse cx="343.12" cy="364.2059" fill="#84BE84" rx="3" ry="3" style="stroke:#038048;stroke-width:1;"/><text fill="#000000" font-family="sans-serif" font-size="14" lengthAdjust="spacing" textLength="151.2041" x="352.12" y="367.5526">displayOrders() : void</text><ellipse cx="343.12" cy="380.5028" fill="#84BE84" rx="3" ry="3" style="stroke:#038048;stroke-width:1;"/><text fill="#000000" font-family="sans-serif" font-size="14" lengthAdjust="spacing" textLength="100.2559" x="352.12" y="383.8495">getBill() : float</text><ellipse cx="343.12" cy="396.7997" fill="#84BE84" rx="3" ry="3" style="stroke:#038048;stroke-width:1;"/><text fill="#000000" font-family="sans-serif" font-size="14" lengthAdjust="spacing" textLength="213.917" x="352.12" y="400.1464">removeOrder(index: int) : bool</text></g><!--class Order--><g id="elem_Order"><rect codeLine="30" fill="#F1F1F1" height="145.7813" id="Order" rx="2.5" ry="2.5" style="stroke:#181818;stroke-width:0.5;" width="251.0869" x="326.54" y="467.45"/><ellipse cx="427.8178" cy="483.45" fill="#ADD1B2" rx="11" ry="11" style="stroke:#181818;stroke-width:1;"/><path d="M430.7866,489.0906 Q430.2085,489.3875 429.5678,489.5281 Q428.9272,489.6844 428.2241,489.6844 Q425.7241,489.6844 424.396,488.0437 Q423.0835,486.3875 423.0835,483.2625 Q423.0835,480.1375 424.396,478.4812 Q425.7241,476.825 428.2241,476.825 Q428.9272,476.825 429.5678,476.9812 Q430.2241,477.1375 430.7866,477.4344 L430.7866,480.1531 Q430.1616,479.575 429.5678,479.3094 Q428.9741,479.0281 428.3491,479.0281 Q427.0053,479.0281 426.3178,480.1062 Q425.6303,481.1687 425.6303,483.2625 Q425.6303,485.3562 426.3178,486.4344 Q427.0053,487.4969 428.3491,487.4969 Q428.9741,487.4969 429.5678,487.2312 Q430.1616,486.95 430.7866,486.3719 L430.7866,489.0906 Z " fill="#000000"/><text fill="#000000" font-family="sans-serif" font-size="14" lengthAdjust="spacing" textLength="40.0313" x="448.3178" y="488.2967">Order</text><line style="stroke:#181818;stroke-width:0.5;" x1="327.54" x2="576.6269" y1="499.45" y2="499.45"/><rect fill="none" height="6" style="stroke:#C82930;stroke-width:1;" width="6" x="334.54" y="510.0984"/><text fill="#000000" font-family="sans-serif" font-size="14" lengthAdjust="spacing" textLength="155.9277" x="346.54" y="516.4451">items : list[OrderItem]</text><line style="stroke:#181818;stroke-width:0.5;" x1="327.54" x2="576.6269" y1="523.7469" y2="523.7469"/><ellipse cx="337.54" cy="537.3953" fill="#84BE84" rx="3" ry="3" style="stroke:#038048;stroke-width:1;"/><text fill="#000000" font-family="sans-serif" font-size="14" lengthAdjust="spacing" textLength="50.9551" x="346.54" y="540.742">Order()</text><ellipse cx="337.54" cy="553.6922" fill="#84BE84" rx="3" ry="3" style="stroke:#038048;stroke-width:1;"/><text fill="#000000" font-family="sans-serif" font-size="14" lengthAdjust="spacing" textLength="225.0869" x="346.54" y="557.0389">addItem(item: OrderItem) : void</text><ellipse cx="337.54" cy="569.9891" fill="#84BE84" rx="3" ry="3" style="stroke:#038048;stroke-width:1;"/><text fill="#000000" font-family="sans-serif" font-size="14" lengthAdjust="spacing" textLength="205.7549" x="346.54" y="573.3357">removeItem(index: int) : bool</text><ellipse cx="337.54" cy="586.2859" fill="#84BE84" rx="3" ry="3" style="stroke:#038048;stroke-width:1;"/><text fill="#000000" font-family="sans-serif" font-size="14" lengthAdjust="spacing" textLength="148.4561" x="346.54" y="589.6326">getTotalPrice() : float</text><ellipse cx="337.54" cy="602.5828" fill="#84BE84" rx="3" ry="3" style="stroke:#038048;stroke-width:1;"/><text fill="#000000" font-family="sans-serif" font-size="14" lengthAdjust="spacing" textLength="143.9102" x="346.54" y="605.9295">displayOrder() : void</text></g><!--class OrderItem--><g id="elem_OrderItem"><rect codeLine="40" fill="#F1F1F1" height="162.0781" id="OrderItem" rx="2.5" ry="2.5" style="stroke:#181818;stroke-width:0.5;" width="477.001" x="213.58" y="673.23"/><ellipse cx="411.8803" cy="689.23" fill="#ADD1B2" rx="11" ry="11" style="stroke:#181818;stroke-width:1;"/><path d="M414.849,694.8706 Q414.2709,695.1675 413.6303,695.3081 Q412.9897,695.4644 412.2865,695.4644 Q409.7865,695.4644 408.4584,693.8237 Q407.1459,692.1675 407.1459,689.0425 Q407.1459,685.9175 408.4584,684.2612 Q409.7865,682.605 412.2865,682.605 Q412.9897,682.605 413.6303,682.7612 Q414.2865,682.9175 414.849,683.2144 L414.849,685.9331 Q414.224,685.355 413.6303,685.0894 Q413.0365,684.8081 412.4115,684.8081 Q411.0678,684.8081 410.3803,685.8862 Q409.6928,686.9487 409.6928,689.0425 Q409.6928,691.1362 410.3803,692.2144 Q411.0678,693.2769 412.4115,693.2769 Q413.0365,693.2769 413.6303,693.0112 Q414.224,692.73 414.849,692.1519 L414.849,694.8706 Z " fill="#000000"/><text fill="#000000" font-family="sans-serif" font-size="14" lengthAdjust="spacing" textLength="71.9004" x="432.3803" y="694.0767">OrderItem</text><line style="stroke:#181818;stroke-width:0.5;" x1="214.58" x2="689.581" y1="705.23" y2="705.23"/><rect fill="none" height="6" style="stroke:#C82930;stroke-width:1;" width="6" x="221.58" y="715.8784"/><text fill="#000000" font-family="sans-serif" font-size="14" lengthAdjust="spacing" textLength="105.0889" x="233.58" y="722.2251">itemName : str</text><rect fill="none" height="6" style="stroke:#C82930;stroke-width:1;" width="6" x="221.58" y="732.1753"/><text fill="#000000" font-family="sans-serif" font-size="14" lengthAdjust="spacing" textLength="141.3467" x="233.58" y="738.522">specialRequests: str</text><rect fill="none" height="6" style="stroke:#C82930;stroke-width:1;" width="6" x="221.58" y="748.4722"/><text fill="#000000" font-family="sans-serif" font-size="14" lengthAdjust="spacing" textLength="108.3906" x="233.58" y="754.8189">basePrice: float</text><rect fill="none" height="6" style="stroke:#C82930;stroke-width:1;" width="6" x="221.58" y="764.7691"/><text fill="#000000" font-family="sans-serif" font-size="14" lengthAdjust="spacing" textLength="109.6279" x="233.58" y="771.1157">finalPrice : float</text><line style="stroke:#181818;stroke-width:0.5;" x1="214.58" x2="689.581" y1="778.4175" y2="778.4175"/><ellipse cx="224.58" cy="792.0659" fill="#84BE84" rx="3" ry="3" style="stroke:#038048;stroke-width:1;"/><text fill="#000000" font-family="sans-serif" font-size="14" lengthAdjust="spacing" textLength="451.001" x="233.58" y="795.4126">OrderItem(itemName: str, basePrice: float, specialRequests: str)</text><ellipse cx="224.58" cy="808.3628" fill="#84BE84" rx="3" ry="3" style="stroke:#038048;stroke-width:1;"/><text fill="#000000" font-family="sans-serif" font-size="14" lengthAdjust="spacing" textLength="146.665" x="233.58" y="811.7095">getFinalPrice() : float</text><ellipse cx="224.58" cy="824.6597" fill="#84BE84" rx="3" ry="3" style="stroke:#038048;stroke-width:1;"/><text fill="#000000" font-family="sans-serif" font-size="14" lengthAdjust="spacing" textLength="135.748" x="233.58" y="828.0064">displayItem() : void</text></g><!--reverse link Restaurant to Menu--><g id="link_Restaurant_Menu"><path codeLine="50" d="M237.279,195.7779 C220.729,220.9579 209.62,237.87 194.22,261.3 " fill="none" id="Restaurant-backto-Menu" style="stroke:#181818;stroke-width:1;"/><polygon fill="#181818" points="243.87,185.75,237.2319,188.5669,237.279,195.7779,243.9171,192.9609,243.87,185.75" style="stroke:#181818;stroke-width:1;"/><text fill="#000000" font-family="sans-serif" font-size="13" lengthAdjust="spacing" textLength="8.271" x="190.4063" y="250.4322">1</text></g><!--reverse link Restaurant to Table--><g id="link_Restaurant_Table"><path codeLine="51" d="M366.8812,195.7778 C379.7312,215.3278 386.68,225.9 399.29,245.1 " fill="none" id="Restaurant-backto-Table" style="stroke:#181818;stroke-width:1;"/><polygon fill="#181818" points="360.29,185.75,360.243,192.9609,366.8812,195.7778,366.9282,188.5668,360.29,185.75" style="stroke:#181818;stroke-width:1;"/><text fill="#000000" font-family="sans-serif" font-size="13" lengthAdjust="spacing" textLength="23.0356" x="370.5659" y="234.2633">0..*</text></g><!--reverse link Table to Order--><g id="link_Table_Order"><path codeLine="52" d="M452.08,419.84 C452.08,439.27 452.08,447.93 452.08,466.97 " fill="none" id="Table-backto-Order" style="stroke:#181818;stroke-width:1;"/><polygon fill="#181818" points="452.08,407.84,448.08,413.84,452.08,419.84,456.08,413.84,452.08,407.84" style="stroke:#181818;stroke-width:1;"/><text fill="#000000" font-family="sans-serif" font-size="13" lengthAdjust="spacing" textLength="23.0356" x="427.9853" y="456.3352">0..*</text></g><!--reverse link Order to OrderItem--><g id="link_Order_OrderItem"><path codeLine="53" d="M452.08,625.68 C452.08,644.75 452.08,653.43 452.08,672.9 " fill="none" id="Order-backto-OrderItem" style="stroke:#181818;stroke-width:1;"/><polygon fill="#181818" points="452.08,613.68,448.08,619.68,452.08,625.68,456.08,619.68,452.08,613.68" style="stroke:#181818;stroke-width:1;"/><text fill="#000000" font-family="sans-serif" font-size="13" lengthAdjust="spacing" textLength="23.0356" x="428.0573" y="662.0579">0..*</text></g><!--SRC=[ZLJ1ReCm3Btp5LPFjAFLTkMumwGTrbNLRbKF0TmfKe2EX6hJj7-VumIMK2hj1F6pdv-V0wKIMiCUjH5z9ne3tmd06eme56h8ePAbESZ6PF1cGqT6QsnwmbxeGUUxe3orq9DKc8CstP9HKLLScpBfjgyBx78WpYLnCC9fxsZ-arP9VLRYYmCwjTYbbLK8MLaneCK57wLILzGPd4Xh8sglbugAjbN9JvAKR8pbyfP8W_Ne22LJhMg5EN87xXbp3RC_KrqwXZCuTxAaTowEL981DdTdyJJInBctHnpLiYdX1eDHETXs5NPs22MrERpQazD_m_bX1ivCkJe7FimPpy1a9pGKEn-FqM7TNj2nogR2pt7HiVsSCV7_JxfroybtJB7bDj-BjUT8bUllqgxR3xUnDKAvRSmkmJSDjX2gjkIiVD2-fOq2hzG7zHbBATGUFthwVdG85KBZBhWdFdoIZLSKwHdxfKCVVzMcDDbip-KmyDD8FpymjmZd3NuRg_KQ5WyBzq-OnkytczN2VyFkZWPXLf-uJK_3jkCl]--></g></svg>