<svg xmlns="http://www.w3.org/2000/svg" xmlns:xlink="http://www.w3.org/1999/xlink" contentStyleType="text/css" data-diagram-type="CLASS" height="858px" preserveAspectRatio="none" style="width:697px;height:858px;background:#FFFFFF;" version="1.1" viewBox="0 0 697 858" width="697px" zoomAndPan="magnify"><defs/><g><!--class Restaurant--><g id="elem_Restaurant"><rect codeLine="1" fill="#F1F1F1" height="178.375" id="Restaurant" rx="2.5" ry="2.5" style="stroke:#181818;stroke-width:0.5;" width="351.2402" x="126.46" y="7"/><ellipse cx="259.1934" cy="23" fill="#ADD1B2" rx="11" ry="11" style="stroke:#181818;stroke-width:1;"/><path d="M262.1621,28.6406 Q261.584,28.9375 260.9434,29.0781 Q260.3028,29.2344 259.5996,29.2344 Q257.0996,29.2344 255.7715,27.5938 Q254.459,25.9375 254.459,22.8125 Q254.459,19.6875 255.7715,18.0313 Q257.0996,16.375 259.5996,16.375 Q260.3028,16.375 260.9434,16.5313 Q261.5996,16.6875 262.1621,16.9844 L262.1621,19.7031 Q261.5371,19.125 260.9434,18.8594 Q260.3496,18.5781 259.7246,18.5781 Q258.3809,18.5781 257.6934,19.6563 Q257.0059,20.7188 257.0059,22.8125 Q257.0059,24.9063 257.6934,25.9844 Q258.3809,27.0469 259.7246,27.0469 Q260.3496,27.0469 260.9434,26.7813 Q261.5371,26.5 262.1621,25.9219 L262.1621,28.6406 Z " fill="#000000"/><text fill="#000000" font-family="sans-serif" font-size="14" lengthAdjust="spacing" textLength="77.2734" x="279.6934" y="27.8467">Restaurant</text><line style="stroke:#181818;stroke-width:0.5;" x1="127.46" x2="476.7002" y1="39" y2="39"/><rect fill="none" height="6" style="stroke:#C82930;stroke-width:1;" width="6" x="134.46" y="49.6484"/><text fill="#000000" font-family="sans-serif" font-size="14" lengthAdjust="spacing" textLength="158.9287" x="146.46" y="55.9951">tables : dict[int, Table]</text><rect fill="none" height="6" style="stroke:#C82930;stroke-width:1;" width="6" x="134.46" y="65.9453"/><text fill="#000000" font-family="sans-serif" font-size="14" lengthAdjust="spacing" textLength="92.0527" x="146.46" y="72.292">menu : Menu</text><line style="stroke:#181818;stroke-width:0.5;" x1="127.46" x2="476.7002" y1="79.5938" y2="79.5938"/><ellipse cx="137.46" cy="93.2422" fill="#84BE84" rx="3" ry="3" style="stroke:#038048;stroke-width:1;"/><text fill="#000000" font-family="sans-serif" font-size="14" lengthAdjust="spacing" textLength="180.3457" x="146.46" y="96.5889">Restaurant(menuFile: str)</text><ellipse cx="137.46" cy="109.5391" fill="#84BE84" rx="3" ry="3" style="stroke:#038048;stroke-width:1;"/><text fill="#000000" font-family="sans-serif" font-size="14" lengthAdjust="spacing" textLength="247.0508" x="146.46" y="112.8857">addTable(tableNumber: int) : Table</text><ellipse cx="137.46" cy="125.8359" fill="#84BE84" rx="3" ry="3" style="stroke:#038048;stroke-width:1;"/><text fill="#000000" font-family="sans-serif" font-size="14" lengthAdjust="spacing" textLength="243.6875" x="146.46" y="129.1826">getTable(tableNumber: int) : Table</text><ellipse cx="137.46" cy="142.1328" fill="#84BE84" rx="3" ry="3" style="stroke:#038048;stroke-width:1;"/><text fill="#000000" font-family="sans-serif" font-size="14" lengthAdjust="spacing" textLength="149.6934" x="146.46" y="145.4795">displayTables() : void</text><ellipse cx="137.46" cy="158.4297" fill="#84BE84" rx="3" ry="3" style="stroke:#038048;stroke-width:1;"/><text fill="#000000" font-family="sans-serif" font-size="14" lengthAdjust="spacing" textLength="142.3174" x="146.46" y="161.7764">displayMenu() : void</text><ellipse cx="137.46" cy="174.7266" fill="#84BE84" rx="3" ry="3" style="stroke:#038048;stroke-width:1;"/><text fill="#000000" font-family="sans-serif" font-size="14" lengthAdjust="spacing" textLength="325.2402" x="146.46" y="178.0732">saveBill(tableNumber: int, filename: str) : bool</text></g><!--class Menu--><g id="elem_Menu"><rect codeLine="12" fill="#F1F1F1" height="129.4844" id="Menu" rx="2.5" ry="2.5" style="stroke:#181818;stroke-width:0.5;" width="290.1611" x="7" y="261.67"/><ellipse cx="128.6113" cy="277.67" fill="#ADD1B2" rx="11" ry="11" style="stroke:#181818;stroke-width:1;"/><path d="M131.5801,283.3106 Q131.002,283.6075 130.3613,283.7481 Q129.7207,283.9044 129.0176,283.9044 Q126.5176,283.9044 125.1895,282.2637 Q123.877,280.6075 123.877,277.4825 Q123.877,274.3575 125.1895,272.7012 Q126.5176,271.045 129.0176,271.045 Q129.7207,271.045 130.3613,271.2012 Q131.0176,271.3575 131.5801,271.6544 L131.5801,274.3731 Q130.9551,273.795 130.3613,273.5294 Q129.7676,273.2481 129.1426,273.2481 Q127.7988,273.2481 127.1113,274.3262 Q126.4238,275.3887 126.4238,277.4825 Q126.4238,279.5762 127.1113,280.6544 Q127.7988,281.7169 129.1426,281.7169 Q129.7676,281.7169 130.3613,281.4512 Q130.9551,281.17 131.5801,280.5919 L131.5801,283.3106 Z " fill="#000000"/><text fill="#000000" font-family="sans-serif" font-size="14" lengthAdjust="spacing" textLength="38.4385" x="149.1113" y="282.5167">Menu</text><line style="stroke:#181818;stroke-width:0.5;" x1="8" x2="296.1611" y1="293.67" y2="293.67"/><rect fill="none" height="6" style="stroke:#C82930;stroke-width:1;" width="6" x="15" y="304.3184"/><text fill="#000000" font-family="sans-serif" font-size="14" lengthAdjust="spacing" textLength="148.3193" x="27" y="310.6651">items : dict[str, float]</text><line style="stroke:#181818;stroke-width:0.5;" x1="8" x2="296.1611" y1="317.9669" y2="317.9669"/><ellipse cx="18" cy="331.6153" fill="#84BE84" rx="3" ry="3" style="stroke:#038048;stroke-width:1;"/><text fill="#000000" font-family="sans-serif" font-size="14" lengthAdjust="spacing" textLength="138.0928" x="27" y="334.962">Menu(filename: str)</text><ellipse cx="18" cy="347.9122" fill="#84BE84" rx="3" ry="3" style="stroke:#038048;stroke-width:1;"/><text fill="#000000" font-family="sans-serif" font-size="14" lengthAdjust="spacing" textLength="264.1611" x="27" y="351.2589">addItem(name: str, price: float) : void</text><ellipse cx="18" cy="364.2091" fill="#84BE84" rx="3" ry="3" style="stroke:#038048;stroke-width:1;"/><text fill="#000000" font-family="sans-serif" font-size="14" lengthAdjust="spacing" textLength="212.6592" x="27" y="367.5557">getItemPrice(name: str) : float</text><ellipse cx="18" cy="380.5059" fill="#84BE84" rx="3" ry="3" style="stroke:#038048;stroke-width:1;"/><text fill="#000000" font-family="sans-serif" font-size="14" lengthAdjust="spacing" textLength="142.3174" x="27" y="383.8526">displayMenu() : void</text></g><!--class Table--><g id="elem_Table"><rect codeLine="20" fill="#F1F1F1" height="162.0781" id="Table" rx="2.5" ry="2.5" style="stroke:#181818;stroke-width:0.5;" width="239.917" x="332.12" y="245.38"/><ellipse cx="428.5682" cy="261.38" fill="#ADD1B2" rx="11" ry="11" style="stroke:#181818;stroke-width:1;"/><path d="M431.537,267.0206 Q430.9589,267.3175 430.3182,267.4581 Q429.6776,267.6144 428.9745,267.6144 Q426.4745,267.6144 425.1464,265.9738 Q423.8339,264.3175 423.8339,261.1925 Q423.8339,258.0675 425.1464,256.4113 Q426.4745,254.755 428.9745,254.755 Q429.6776,254.755 430.3182,254.9113 Q430.9745,255.0675 431.537,255.3644 L431.537,258.0831 Q430.912,257.505 430.3182,257.2394 Q429.7245,256.9581 429.0995,256.9581 Q427.7557,256.9581 427.0682,258.0363 Q426.3807,259.0988 426.3807,261.1925 Q426.3807,263.2863 427.0682,264.3644 Q427.7557,265.4269 429.0995,265.4269 Q429.7245,265.4269 430.3182,265.1613 Q430.912,264.88 431.537,264.3019 L431.537,267.0206 Z " fill="#000000"/><text fill="#000000" font-family="sans-serif" font-size="14" lengthAdjust="spacing" textLength="38.5205" x="449.0682" y="266.2267">Table</text><line style="stroke:#181818;stroke-width:0.5;" x1="333.12" x2="571.037" y1="277.38" y2="277.38"/><rect fill="none" height="6" style="stroke:#C82930;stroke-width:1;" width="6" x="340.12" y="288.0284"/><text fill="#000000" font-family="sans-serif" font-size="14" lengthAdjust="spacing" textLength="119.1162" x="352.12" y="294.3751">tableNumber: int</text><rect fill="none" height="6" style="stroke:#C82930;stroke-width:1;" width="6" x="340.12" y="304.3253"/><text fill="#000000" font-family="sans-serif" font-size="14" lengthAdjust="spacing" textLength="130.0059" x="352.12" y="310.672">orders : list[Order]</text><line style="stroke:#181818;stroke-width:0.5;" x1="333.12" x2="571.037" y1="317.9738" y2="317.9738"/><ellipse cx="343.12" cy="331.6222" fill="#84BE84" rx="3" ry="3" style="stroke:#038048;stroke-width:1;"/><text fill="#000000" font-family="sans-serif" font-size="14" lengthAdjust="spacing" textLength="168.5605" x="352.12" y="334.9689">Table(tableNumber: int)</text><ellipse cx="343.12" cy="347.9191" fill="#84BE84" rx="3" ry="3" style="stroke:#038048;stroke-width:1;"/><text fill="#000000" font-family="sans-serif" font-size="14" lengthAdjust="spacing" textLength="207.3271" x="352.12" y="351.2657">addOrder(order: Order) : void</text><ellipse cx="343.12" cy="364.2159" fill="#84BE84" rx="3" ry="3" style="stroke:#038048;stroke-width:1;"/><text fill="#000000" font-family="sans-serif" font-size="14" lengthAdjust="spacing" textLength="151.2041" x="352.12" y="367.5626">displayOrders() : void</text><ellipse cx="343.12" cy="380.5128" fill="#84BE84" rx="3" ry="3" style="stroke:#038048;stroke-width:1;"/><text fill="#000000" font-family="sans-serif" font-size="14" lengthAdjust="spacing" textLength="100.2559" x="352.12" y="383.8595">getBill() : float</text><ellipse cx="343.12" cy="396.8097" fill="#84BE84" rx="3" ry="3" style="stroke:#038048;stroke-width:1;"/><text fill="#000000" font-family="sans-serif" font-size="14" lengthAdjust="spacing" textLength="213.917" x="352.12" y="400.1564">removeOrder(index: int) : bool</text></g><!--class Order--><g id="elem_Order"><rect codeLine="30" fill="#F1F1F1" height="162.0781" id="Order" rx="2.5" ry="2.5" style="stroke:#181818;stroke-width:0.5;" width="352.3887" x="275.89" y="467.45"/><ellipse cx="427.8187" cy="483.45" fill="#ADD1B2" rx="11" ry="11" style="stroke:#181818;stroke-width:1;"/><path d="M430.7875,489.0906 Q430.2093,489.3875 429.5687,489.5281 Q428.9281,489.6844 428.225,489.6844 Q425.725,489.6844 424.3968,488.0438 Q423.0843,486.3875 423.0843,483.2625 Q423.0843,480.1375 424.3968,478.4813 Q425.725,476.825 428.225,476.825 Q428.9281,476.825 429.5687,476.9813 Q430.225,477.1375 430.7875,477.4344 L430.7875,480.1531 Q430.1625,479.575 429.5687,479.3094 Q428.975,479.0281 428.35,479.0281 Q427.0062,479.0281 426.3187,480.1063 Q425.6312,481.1688 425.6312,483.2625 Q425.6312,485.3563 426.3187,486.4344 Q427.0062,487.4969 428.35,487.4969 Q428.975,487.4969 429.5687,487.2313 Q430.1625,486.95 430.7875,486.3719 L430.7875,489.0906 Z " fill="#000000"/><text fill="#000000" font-family="sans-serif" font-size="14" lengthAdjust="spacing" textLength="40.0313" x="448.3187" y="488.2967">Order</text><line style="stroke:#181818;stroke-width:0.5;" x1="276.89" x2="627.2787" y1="499.45" y2="499.45"/><rect fill="none" height="6" style="stroke:#C82930;stroke-width:1;" width="6" x="283.89" y="510.0984"/><text fill="#000000" font-family="sans-serif" font-size="14" lengthAdjust="spacing" textLength="155.9277" x="295.89" y="516.4451">items : list[OrderItem]</text><line style="stroke:#181818;stroke-width:0.5;" x1="276.89" x2="627.2787" y1="523.7469" y2="523.7469"/><ellipse cx="286.89" cy="537.3953" fill="#84BE84" rx="3" ry="3" style="stroke:#038048;stroke-width:1;"/><text fill="#000000" font-family="sans-serif" font-size="14" lengthAdjust="spacing" textLength="50.9551" x="295.89" y="540.742">Order()</text><ellipse cx="286.89" cy="553.6922" fill="#84BE84" rx="3" ry="3" style="stroke:#038048;stroke-width:1;"/><text fill="#000000" font-family="sans-serif" font-size="14" lengthAdjust="spacing" textLength="225.0869" x="295.89" y="557.0389">addItem(item: OrderItem) : void</text><ellipse cx="286.89" cy="569.9891" fill="#84BE84" rx="3" ry="3" style="stroke:#038048;stroke-width:1;"/><text fill="#000000" font-family="sans-serif" font-size="14" lengthAdjust="spacing" textLength="205.7549" x="295.89" y="573.3357">removeItem(index: int) : bool</text><ellipse cx="286.89" cy="586.2859" fill="#84BE84" rx="3" ry="3" style="stroke:#038048;stroke-width:1;"/><text fill="#000000" font-family="sans-serif" font-size="14" lengthAdjust="spacing" textLength="326.3887" x="295.89" y="589.6326">addSpecialRequestsToItem(index: int, list[str])</text><ellipse cx="286.89" cy="602.5828" fill="#84BE84" rx="3" ry="3" style="stroke:#038048;stroke-width:1;"/><text fill="#000000" font-family="sans-serif" font-size="14" lengthAdjust="spacing" textLength="148.4561" x="295.89" y="605.9295">getTotalPrice() : float</text><ellipse cx="286.89" cy="618.8797" fill="#84BE84" rx="3" ry="3" style="stroke:#038048;stroke-width:1;"/><text fill="#000000" font-family="sans-serif" font-size="14" lengthAdjust="spacing" textLength="143.9102" x="295.89" y="622.2264">displayOrder() : void</text></g><!--class OrderItem--><g id="elem_OrderItem"><rect codeLine="41" fill="#F1F1F1" height="162.0781" id="OrderItem" rx="2.5" ry="2.5" style="stroke:#181818;stroke-width:0.5;" width="477.001" x="213.58" y="689.53"/><ellipse cx="411.8803" cy="705.53" fill="#ADD1B2" rx="11" ry="11" style="stroke:#181818;stroke-width:1;"/><path d="M414.849,711.1706 Q414.2709,711.4675 413.6303,711.6081 Q412.9897,711.7644 412.2865,711.7644 Q409.7865,711.7644 408.4584,710.1238 Q407.1459,708.4675 407.1459,705.3425 Q407.1459,702.2175 408.4584,700.5613 Q409.7865,698.905 412.2865,698.905 Q412.9897,698.905 413.6303,699.0613 Q414.2865,699.2175 414.849,699.5144 L414.849,702.2331 Q414.224,701.655 413.6303,701.3894 Q413.0365,701.1081 412.4115,701.1081 Q411.0678,701.1081 410.3803,702.1863 Q409.6928,703.2488 409.6928,705.3425 Q409.6928,707.4363 410.3803,708.5144 Q411.0678,709.5769 412.4115,709.5769 Q413.0365,709.5769 413.6303,709.3113 Q414.224,709.03 414.849,708.4519 L414.849,711.1706 Z " fill="#000000"/><text fill="#000000" font-family="sans-serif" font-size="14" lengthAdjust="spacing" textLength="71.9004" x="432.3803" y="710.3767">OrderItem</text><line style="stroke:#181818;stroke-width:0.5;" x1="214.58" x2="689.581" y1="721.53" y2="721.53"/><rect fill="none" height="6" style="stroke:#C82930;stroke-width:1;" width="6" x="221.58" y="732.1784"/><text fill="#000000" font-family="sans-serif" font-size="14" lengthAdjust="spacing" textLength="105.0889" x="233.58" y="738.5251">itemName : str</text><rect fill="none" height="6" style="stroke:#C82930;stroke-width:1;" width="6" x="221.58" y="748.4753"/><text fill="#000000" font-family="sans-serif" font-size="14" lengthAdjust="spacing" textLength="141.3467" x="233.58" y="754.822">specialRequests: str</text><rect fill="none" height="6" style="stroke:#C82930;stroke-width:1;" width="6" x="221.58" y="764.7722"/><text fill="#000000" font-family="sans-serif" font-size="14" lengthAdjust="spacing" textLength="108.3906" x="233.58" y="771.1189">basePrice: float</text><rect fill="none" height="6" style="stroke:#C82930;stroke-width:1;" width="6" x="221.58" y="781.0691"/><text fill="#000000" font-family="sans-serif" font-size="14" lengthAdjust="spacing" textLength="109.6279" x="233.58" y="787.4157">finalPrice : float</text><line style="stroke:#181818;stroke-width:0.5;" x1="214.58" x2="689.581" y1="794.7175" y2="794.7175"/><ellipse cx="224.58" cy="808.3659" fill="#84BE84" rx="3" ry="3" style="stroke:#038048;stroke-width:1;"/><text fill="#000000" font-family="sans-serif" font-size="14" lengthAdjust="spacing" textLength="451.001" x="233.58" y="811.7126">OrderItem(itemName: str, basePrice: float, specialRequests: str)</text><ellipse cx="224.58" cy="824.6628" fill="#84BE84" rx="3" ry="3" style="stroke:#038048;stroke-width:1;"/><text fill="#000000" font-family="sans-serif" font-size="14" lengthAdjust="spacing" textLength="146.665" x="233.58" y="828.0095">getFinalPrice() : float</text><ellipse cx="224.58" cy="840.9597" fill="#84BE84" rx="3" ry="3" style="stroke:#038048;stroke-width:1;"/><text fill="#000000" font-family="sans-serif" font-size="14" lengthAdjust="spacing" textLength="135.748" x="233.58" y="844.3064">displayItem() : void</text></g><!--reverse link Restaurant to Menu--><g id="link_Restaurant_Menu"><path codeLine="51" d="M237.2808,195.7791 C220.7308,220.9691 209.62,237.87 194.22,261.3 " fill="none" id="Restaurant-backto-Menu" style="stroke:#181818;stroke-width:1;"/><polygon fill="#181818" points="243.87,185.75,237.2324,188.5682,237.2808,195.7791,243.9184,192.9609,243.87,185.75" style="stroke:#181818;stroke-width:1;"/><text fill="#000000" font-family="sans-serif" font-size="13" lengthAdjust="spacing" textLength="8.271" x="190.4063" y="250.4322">1</text></g><!--reverse link Restaurant to Table--><g id="link_Restaurant_Table"><path codeLine="52" d="M366.8812,195.7778 C379.7312,215.3278 386.68,225.9 399.29,245.1 " fill="none" id="Restaurant-backto-Table" style="stroke:#181818;stroke-width:1;"/><polygon fill="#181818" points="360.29,185.75,360.243,192.9609,366.8812,195.7778,366.9282,188.5668,360.29,185.75" style="stroke:#181818;stroke-width:1;"/><text fill="#000000" font-family="sans-serif" font-size="13" lengthAdjust="spacing" textLength="23.0356" x="370.5659" y="234.2624">0..*</text></g><!--reverse link Table to Order--><g id="link_Table_Order"><path codeLine="53" d="M452.08,419.8 C452.08,439.08 452.08,447.67 452.08,466.95 " fill="none" id="Table-backto-Order" style="stroke:#181818;stroke-width:1;"/><polygon fill="#181818" points="452.08,407.8,448.08,413.8,452.08,419.8,456.08,413.8,452.08,407.8" style="stroke:#181818;stroke-width:1;"/><text fill="#000000" font-family="sans-serif" font-size="13" lengthAdjust="spacing" textLength="23.0356" x="428.0929" y="456.3708">0..*</text></g><!--reverse link Order to OrderItem--><g id="link_Order_OrderItem"><path codeLine="54" d="M452.08,641.88 C452.08,661.16 452.08,669.75 452.08,689.03 " fill="none" id="Order-backto-OrderItem" style="stroke:#181818;stroke-width:1;"/><polygon fill="#181818" points="452.08,629.88,448.08,635.88,452.08,641.88,456.08,635.88,452.08,629.88" style="stroke:#181818;stroke-width:1;"/><text fill="#000000" font-family="sans-serif" font-size="13" lengthAdjust="spacing" textLength="23.0356" x="428.0932" y="678.4508">0..*</text></g><!--SRC=[ZLGzRy8m4DtpAoocG0DgrumTAdKeHPGDCJZ9KLboOXexg5NL_zxpsRXs258dy7syU-_TGIsvrcmBsl2XvvrXtnbZIsPu9K6paZMYDdlHcOBjREX0sHQw0NCl-87lkwWzjwad8Q5aslHpolAceTwSGDT3Mq5VCiIS8mPbgEmTp7_A6g5FadzHGESsTrQYYLEMLfhG_0oFGiehw88TaMl7MyyNcogbPFQJPJKPOx6y9S906np1OkoLYfi3JQ2PATP5-pFsvI5Si5ClQlnEpGbBDC3MRcm-JpXHxMs9WIsP4cymaaf1rJVGMn5IQBD_jI_7_uRp5mrKcLDtoUWnPJmbHZj1KUHyAgE7Lft1eOgkWS-mwDH-gXZv_qVTkkNeEwJKSblloTftmihDTsNNuptAsmbgmUKMFWQyRxrJe_h2KS4T7URXWfNXqcrmSd6UQBIvMAaTG6elUjTu1OpEm0TroYbELLp39hej7pwApZDA-8Hv-MMEFyynJ34vCmX-2l3JWcb4h3VwgraibspsC7F_8-Fu_MgrcFdVlRlhA4piCtSTux2T-0i0]--></g></svg>